<mxfile host="app.diagrams.net" modified="2021-11-24T06:02:54.761Z" agent="5.0 (Macintosh; Intel Mac OS X 10_15_7) AppleWebKit/537.36 (KHTML, like Gecko) Chrome/95.0.4638.69 Safari/537.36" etag="RcsRlrgcAM9byJK1l_kB" version="14.8.0" type="github">
  <diagram id="yPxyJZ8AM_hMuL3Unpa9" name="gitflow">
    <mxGraphModel dx="983" dy="548" grid="1" gridSize="10" guides="1" tooltips="1" connect="1" arrows="1" fold="1" page="1" pageScale="1" pageWidth="850" pageHeight="1100" math="0" shadow="0">
      <root>
        <mxCell id="0" />
        <mxCell id="1" parent="0" />
        <mxCell id="Fet1WZ8O3aiLSY5_AQYO-188" style="edgeStyle=orthogonalEdgeStyle;rounded=0;orthogonalLoop=1;jettySize=auto;html=1;exitX=1;exitY=0.5;exitDx=0;exitDy=0;fillColor=#dae8fc;strokeColor=#6c8ebf;dashed=1;endArrow=none;endFill=0;" edge="1" parent="1" source="Fet1WZ8O3aiLSY5_AQYO-186" target="Fet1WZ8O3aiLSY5_AQYO-187">
          <mxGeometry relative="1" as="geometry" />
        </mxCell>
        <mxCell id="Fet1WZ8O3aiLSY5_AQYO-186" value="Master" style="text;html=1;strokeColor=#6c8ebf;fillColor=#dae8fc;align=center;verticalAlign=middle;whiteSpace=wrap;rounded=0;" vertex="1" parent="1">
          <mxGeometry x="42" y="50" width="90" height="20" as="geometry" />
        </mxCell>
        <mxCell id="Fet1WZ8O3aiLSY5_AQYO-199" style="edgeStyle=orthogonalEdgeStyle;rounded=0;orthogonalLoop=1;jettySize=auto;html=1;exitX=1;exitY=0.5;exitDx=0;exitDy=0;entryX=0;entryY=0.5;entryDx=0;entryDy=0;dashed=1;endArrow=none;endFill=0;fillColor=#dae8fc;strokeColor=#6c8ebf;" edge="1" parent="1" source="Fet1WZ8O3aiLSY5_AQYO-187" target="Fet1WZ8O3aiLSY5_AQYO-190">
          <mxGeometry relative="1" as="geometry" />
        </mxCell>
        <mxCell id="Fet1WZ8O3aiLSY5_AQYO-187" value="a" style="ellipse;whiteSpace=wrap;html=1;aspect=fixed;fillColor=#dae8fc;strokeColor=#6c8ebf;fontStyle=1;labelPosition=center;verticalLabelPosition=top;align=center;verticalAlign=bottom;fontColor=#0066CC;" vertex="1" parent="1">
          <mxGeometry x="180" y="50" width="20" height="20" as="geometry" />
        </mxCell>
        <mxCell id="Fet1WZ8O3aiLSY5_AQYO-200" style="edgeStyle=orthogonalEdgeStyle;rounded=0;orthogonalLoop=1;jettySize=auto;html=1;exitX=1;exitY=0.5;exitDx=0;exitDy=0;entryX=0;entryY=0.5;entryDx=0;entryDy=0;dashed=1;endArrow=none;endFill=0;fillColor=#dae8fc;strokeColor=#6c8ebf;" edge="1" parent="1" source="Fet1WZ8O3aiLSY5_AQYO-190" target="Fet1WZ8O3aiLSY5_AQYO-193">
          <mxGeometry relative="1" as="geometry" />
        </mxCell>
        <mxCell id="Fet1WZ8O3aiLSY5_AQYO-190" value="b" style="ellipse;whiteSpace=wrap;html=1;aspect=fixed;fillColor=#dae8fc;strokeColor=#6c8ebf;fontStyle=1;labelPosition=center;verticalLabelPosition=top;align=center;verticalAlign=bottom;fontColor=#0066CC;" vertex="1" parent="1">
          <mxGeometry x="235.97000000000003" y="50" width="20" height="20" as="geometry" />
        </mxCell>
        <mxCell id="Fet1WZ8O3aiLSY5_AQYO-202" style="edgeStyle=orthogonalEdgeStyle;rounded=0;orthogonalLoop=1;jettySize=auto;html=1;exitX=1;exitY=0.5;exitDx=0;exitDy=0;entryX=0;entryY=0.5;entryDx=0;entryDy=0;dashed=1;endArrow=none;endFill=0;fillColor=#dae8fc;strokeColor=#6c8ebf;" edge="1" parent="1" source="Fet1WZ8O3aiLSY5_AQYO-193" target="Fet1WZ8O3aiLSY5_AQYO-201">
          <mxGeometry relative="1" as="geometry" />
        </mxCell>
        <mxCell id="Fet1WZ8O3aiLSY5_AQYO-210" style="rounded=0;orthogonalLoop=1;jettySize=auto;html=1;exitX=0.5;exitY=1;exitDx=0;exitDy=0;entryX=0;entryY=0.5;entryDx=0;entryDy=0;dashed=1;endArrow=none;endFill=0;fillColor=#fff2cc;strokeColor=#d6b656;" edge="1" parent="1" source="Fet1WZ8O3aiLSY5_AQYO-193" target="Fet1WZ8O3aiLSY5_AQYO-194">
          <mxGeometry relative="1" as="geometry">
            <Array as="points">
              <mxPoint x="300" y="100" />
            </Array>
          </mxGeometry>
        </mxCell>
        <mxCell id="Fet1WZ8O3aiLSY5_AQYO-193" value="c" style="ellipse;whiteSpace=wrap;html=1;aspect=fixed;fillColor=#dae8fc;strokeColor=#6c8ebf;fontStyle=1;labelPosition=center;verticalLabelPosition=top;align=center;verticalAlign=bottom;fontColor=#0066CC;" vertex="1" parent="1">
          <mxGeometry x="280" y="50" width="20" height="20" as="geometry" />
        </mxCell>
        <mxCell id="Fet1WZ8O3aiLSY5_AQYO-204" style="edgeStyle=orthogonalEdgeStyle;curved=1;rounded=0;orthogonalLoop=1;jettySize=auto;html=1;exitX=1;exitY=0.5;exitDx=0;exitDy=0;dashed=1;endArrow=none;endFill=0;fillColor=#fff2cc;strokeColor=#d6b656;" edge="1" parent="1" source="Fet1WZ8O3aiLSY5_AQYO-194" target="Fet1WZ8O3aiLSY5_AQYO-195">
          <mxGeometry relative="1" as="geometry" />
        </mxCell>
        <mxCell id="Fet1WZ8O3aiLSY5_AQYO-194" value="d" style="ellipse;whiteSpace=wrap;html=1;aspect=fixed;fontSize=10;labelPosition=center;verticalLabelPosition=top;align=center;verticalAlign=bottom;fillColor=#ffe6cc;strokeColor=#d79b00;fontColor=#FFB570;" vertex="1" parent="1">
          <mxGeometry x="340.0000000000001" y="90" width="20" height="20" as="geometry" />
        </mxCell>
        <mxCell id="Fet1WZ8O3aiLSY5_AQYO-205" style="edgeStyle=orthogonalEdgeStyle;curved=1;rounded=0;orthogonalLoop=1;jettySize=auto;html=1;exitX=1;exitY=0.5;exitDx=0;exitDy=0;entryX=0;entryY=0.5;entryDx=0;entryDy=0;dashed=1;endArrow=none;endFill=0;fillColor=#fff2cc;strokeColor=#d6b656;" edge="1" parent="1" source="Fet1WZ8O3aiLSY5_AQYO-195" target="Fet1WZ8O3aiLSY5_AQYO-196">
          <mxGeometry relative="1" as="geometry" />
        </mxCell>
        <mxCell id="Fet1WZ8O3aiLSY5_AQYO-195" value="e" style="ellipse;whiteSpace=wrap;html=1;aspect=fixed;fontSize=10;labelPosition=center;verticalLabelPosition=top;align=center;verticalAlign=bottom;fillColor=#ffe6cc;strokeColor=#d79b00;fontColor=#FFB570;" vertex="1" parent="1">
          <mxGeometry x="405.0000000000001" y="90" width="20" height="20" as="geometry" />
        </mxCell>
        <mxCell id="Fet1WZ8O3aiLSY5_AQYO-206" style="rounded=0;orthogonalLoop=1;jettySize=auto;html=1;exitX=1;exitY=0.5;exitDx=0;exitDy=0;entryX=0.484;entryY=1.035;entryDx=0;entryDy=0;dashed=1;endArrow=none;endFill=0;fillColor=#fff2cc;strokeColor=#d6b656;entryPerimeter=0;" edge="1" parent="1" source="Fet1WZ8O3aiLSY5_AQYO-196" target="Fet1WZ8O3aiLSY5_AQYO-214">
          <mxGeometry relative="1" as="geometry">
            <Array as="points">
              <mxPoint x="570" y="100" />
            </Array>
          </mxGeometry>
        </mxCell>
        <mxCell id="Fet1WZ8O3aiLSY5_AQYO-196" value="f" style="ellipse;whiteSpace=wrap;html=1;aspect=fixed;fontSize=10;labelPosition=center;verticalLabelPosition=top;align=center;verticalAlign=bottom;fillColor=#ffe6cc;strokeColor=#d79b00;fontColor=#FFB570;" vertex="1" parent="1">
          <mxGeometry x="465.0000000000001" y="90" width="20" height="20" as="geometry" />
        </mxCell>
        <mxCell id="Fet1WZ8O3aiLSY5_AQYO-208" style="edgeStyle=orthogonalEdgeStyle;curved=1;rounded=0;orthogonalLoop=1;jettySize=auto;html=1;exitX=1;exitY=0.5;exitDx=0;exitDy=0;dashed=1;endArrow=none;endFill=0;fillColor=#dae8fc;strokeColor=#6c8ebf;entryX=0;entryY=0.5;entryDx=0;entryDy=0;" edge="1" parent="1" source="Fet1WZ8O3aiLSY5_AQYO-201" target="Fet1WZ8O3aiLSY5_AQYO-212">
          <mxGeometry relative="1" as="geometry">
            <mxPoint x="580" y="90" as="targetPoint" />
          </mxGeometry>
        </mxCell>
        <mxCell id="Fet1WZ8O3aiLSY5_AQYO-201" value="g" style="ellipse;whiteSpace=wrap;html=1;aspect=fixed;fillColor=#dae8fc;strokeColor=#6c8ebf;fontStyle=1;labelPosition=center;verticalLabelPosition=top;align=center;verticalAlign=bottom;fontColor=#0066CC;" vertex="1" parent="1">
          <mxGeometry x="490" y="50" width="20" height="20" as="geometry" />
        </mxCell>
        <mxCell id="Fet1WZ8O3aiLSY5_AQYO-209" value="Release" style="text;html=1;strokeColor=#d79b00;fillColor=#ffe6cc;align=center;verticalAlign=middle;whiteSpace=wrap;rounded=0;fontSize=12;" vertex="1" parent="1">
          <mxGeometry x="40" y="90" width="90" height="20" as="geometry" />
        </mxCell>
        <mxCell id="Fet1WZ8O3aiLSY5_AQYO-211" style="edgeStyle=orthogonalEdgeStyle;curved=1;rounded=0;orthogonalLoop=1;jettySize=auto;html=1;exitX=1;exitY=0.5;exitDx=0;exitDy=0;dashed=1;endArrow=none;endFill=0;fillColor=#dae8fc;strokeColor=#6c8ebf;" edge="1" parent="1" source="Fet1WZ8O3aiLSY5_AQYO-212">
          <mxGeometry relative="1" as="geometry">
            <mxPoint x="630" y="60.095238095238074" as="targetPoint" />
          </mxGeometry>
        </mxCell>
        <mxCell id="Fet1WZ8O3aiLSY5_AQYO-212" value="h" style="ellipse;whiteSpace=wrap;html=1;aspect=fixed;fillColor=#dae8fc;strokeColor=#6c8ebf;fontStyle=1;labelPosition=center;verticalLabelPosition=top;align=center;verticalAlign=bottom;fontColor=#0066CC;" vertex="1" parent="1">
          <mxGeometry x="540" y="50" width="20" height="20" as="geometry" />
        </mxCell>
        <mxCell id="Fet1WZ8O3aiLSY5_AQYO-213" style="edgeStyle=orthogonalEdgeStyle;curved=1;rounded=0;orthogonalLoop=1;jettySize=auto;html=1;exitX=1;exitY=0.5;exitDx=0;exitDy=0;dashed=1;endArrow=none;endFill=0;fillColor=#dae8fc;strokeColor=#6c8ebf;" edge="1" parent="1" source="Fet1WZ8O3aiLSY5_AQYO-214">
          <mxGeometry relative="1" as="geometry">
            <mxPoint x="680" y="60.095238095238074" as="targetPoint" />
          </mxGeometry>
        </mxCell>
        <mxCell id="Fet1WZ8O3aiLSY5_AQYO-214" value="i" style="ellipse;whiteSpace=wrap;html=1;aspect=fixed;fillColor=#dae8fc;strokeColor=#6c8ebf;fontStyle=1;labelPosition=center;verticalLabelPosition=top;align=center;verticalAlign=bottom;fontColor=#0066CC;" vertex="1" parent="1">
          <mxGeometry x="590" y="50" width="20" height="20" as="geometry" />
        </mxCell>
        <mxCell id="Fet1WZ8O3aiLSY5_AQYO-215" style="edgeStyle=orthogonalEdgeStyle;rounded=0;orthogonalLoop=1;jettySize=auto;html=1;exitX=1;exitY=0.5;exitDx=0;exitDy=0;fillColor=#dae8fc;strokeColor=#6c8ebf;dashed=1;endArrow=none;endFill=0;" edge="1" parent="1" source="Fet1WZ8O3aiLSY5_AQYO-216" target="Fet1WZ8O3aiLSY5_AQYO-218">
          <mxGeometry relative="1" as="geometry" />
        </mxCell>
        <mxCell id="Fet1WZ8O3aiLSY5_AQYO-216" value="Master" style="text;html=1;strokeColor=#6c8ebf;fillColor=#dae8fc;align=center;verticalAlign=middle;whiteSpace=wrap;rounded=0;" vertex="1" parent="1">
          <mxGeometry x="42" y="190" width="90" height="20" as="geometry" />
        </mxCell>
        <mxCell id="Fet1WZ8O3aiLSY5_AQYO-217" style="edgeStyle=orthogonalEdgeStyle;rounded=0;orthogonalLoop=1;jettySize=auto;html=1;exitX=1;exitY=0.5;exitDx=0;exitDy=0;entryX=0;entryY=0.5;entryDx=0;entryDy=0;dashed=1;endArrow=none;endFill=0;fillColor=#dae8fc;strokeColor=#6c8ebf;" edge="1" parent="1" source="Fet1WZ8O3aiLSY5_AQYO-218" target="Fet1WZ8O3aiLSY5_AQYO-220">
          <mxGeometry relative="1" as="geometry" />
        </mxCell>
        <mxCell id="Fet1WZ8O3aiLSY5_AQYO-218" value="a" style="ellipse;whiteSpace=wrap;html=1;aspect=fixed;fillColor=#dae8fc;strokeColor=#6c8ebf;fontStyle=1;labelPosition=center;verticalLabelPosition=top;align=center;verticalAlign=bottom;fontColor=#0066CC;" vertex="1" parent="1">
          <mxGeometry x="180" y="190" width="20" height="20" as="geometry" />
        </mxCell>
        <mxCell id="Fet1WZ8O3aiLSY5_AQYO-219" style="edgeStyle=orthogonalEdgeStyle;rounded=0;orthogonalLoop=1;jettySize=auto;html=1;exitX=1;exitY=0.5;exitDx=0;exitDy=0;entryX=0;entryY=0.5;entryDx=0;entryDy=0;dashed=1;endArrow=none;endFill=0;fillColor=#dae8fc;strokeColor=#6c8ebf;" edge="1" parent="1" source="Fet1WZ8O3aiLSY5_AQYO-220" target="Fet1WZ8O3aiLSY5_AQYO-223">
          <mxGeometry relative="1" as="geometry" />
        </mxCell>
        <mxCell id="Fet1WZ8O3aiLSY5_AQYO-220" value="b" style="ellipse;whiteSpace=wrap;html=1;aspect=fixed;fillColor=#dae8fc;strokeColor=#6c8ebf;fontStyle=1;labelPosition=center;verticalLabelPosition=top;align=center;verticalAlign=bottom;fontColor=#0066CC;" vertex="1" parent="1">
          <mxGeometry x="235.97000000000003" y="190" width="20" height="20" as="geometry" />
        </mxCell>
        <mxCell id="Fet1WZ8O3aiLSY5_AQYO-221" style="edgeStyle=orthogonalEdgeStyle;rounded=0;orthogonalLoop=1;jettySize=auto;html=1;exitX=1;exitY=0.5;exitDx=0;exitDy=0;entryX=0;entryY=0.5;entryDx=0;entryDy=0;dashed=1;endArrow=none;endFill=0;fillColor=#dae8fc;strokeColor=#6c8ebf;" edge="1" parent="1" source="Fet1WZ8O3aiLSY5_AQYO-223" target="Fet1WZ8O3aiLSY5_AQYO-231">
          <mxGeometry relative="1" as="geometry" />
        </mxCell>
        <mxCell id="Fet1WZ8O3aiLSY5_AQYO-223" value="c" style="ellipse;whiteSpace=wrap;html=1;aspect=fixed;fillColor=#dae8fc;strokeColor=#6c8ebf;fontStyle=1;labelPosition=center;verticalLabelPosition=top;align=center;verticalAlign=bottom;fontColor=#0066CC;" vertex="1" parent="1">
          <mxGeometry x="280" y="190" width="20" height="20" as="geometry" />
        </mxCell>
        <mxCell id="Fet1WZ8O3aiLSY5_AQYO-224" style="edgeStyle=orthogonalEdgeStyle;curved=1;rounded=0;orthogonalLoop=1;jettySize=auto;html=1;exitX=1;exitY=0.5;exitDx=0;exitDy=0;dashed=1;endArrow=none;endFill=0;fillColor=#fff2cc;strokeColor=#d6b656;" edge="1" parent="1" source="Fet1WZ8O3aiLSY5_AQYO-225" target="Fet1WZ8O3aiLSY5_AQYO-227">
          <mxGeometry relative="1" as="geometry" />
        </mxCell>
        <mxCell id="Fet1WZ8O3aiLSY5_AQYO-225" value="d" style="ellipse;whiteSpace=wrap;html=1;aspect=fixed;fontSize=10;labelPosition=center;verticalLabelPosition=top;align=center;verticalAlign=bottom;fillColor=#ffe6cc;strokeColor=#d79b00;fontColor=#FFB570;" vertex="1" parent="1">
          <mxGeometry x="438.0000000000001" y="230" width="20" height="20" as="geometry" />
        </mxCell>
        <mxCell id="Fet1WZ8O3aiLSY5_AQYO-226" style="edgeStyle=orthogonalEdgeStyle;curved=1;rounded=0;orthogonalLoop=1;jettySize=auto;html=1;exitX=1;exitY=0.5;exitDx=0;exitDy=0;entryX=0;entryY=0.5;entryDx=0;entryDy=0;dashed=1;endArrow=none;endFill=0;fillColor=#fff2cc;strokeColor=#d6b656;" edge="1" parent="1" source="Fet1WZ8O3aiLSY5_AQYO-227" target="Fet1WZ8O3aiLSY5_AQYO-229">
          <mxGeometry relative="1" as="geometry" />
        </mxCell>
        <mxCell id="Fet1WZ8O3aiLSY5_AQYO-227" value="e" style="ellipse;whiteSpace=wrap;html=1;aspect=fixed;fontSize=10;labelPosition=center;verticalLabelPosition=top;align=center;verticalAlign=bottom;fillColor=#ffe6cc;strokeColor=#d79b00;fontColor=#FFB570;" vertex="1" parent="1">
          <mxGeometry x="503.0000000000001" y="230" width="20" height="20" as="geometry" />
        </mxCell>
        <mxCell id="Fet1WZ8O3aiLSY5_AQYO-242" style="edgeStyle=none;rounded=0;orthogonalLoop=1;jettySize=auto;html=1;exitX=1;exitY=0.5;exitDx=0;exitDy=0;entryX=0.5;entryY=1;entryDx=0;entryDy=0;dashed=1;endArrow=none;endFill=0;fillColor=#fff2cc;strokeColor=#d6b656;" edge="1" parent="1" source="Fet1WZ8O3aiLSY5_AQYO-229" target="Fet1WZ8O3aiLSY5_AQYO-240">
          <mxGeometry relative="1" as="geometry">
            <Array as="points">
              <mxPoint x="618" y="240" />
            </Array>
          </mxGeometry>
        </mxCell>
        <mxCell id="Fet1WZ8O3aiLSY5_AQYO-229" value="f" style="ellipse;whiteSpace=wrap;html=1;aspect=fixed;fontSize=10;labelPosition=center;verticalLabelPosition=top;align=center;verticalAlign=bottom;fillColor=#ffe6cc;strokeColor=#d79b00;fontColor=#FFB570;" vertex="1" parent="1">
          <mxGeometry x="563.0000000000001" y="230" width="20" height="20" as="geometry" />
        </mxCell>
        <mxCell id="Fet1WZ8O3aiLSY5_AQYO-230" style="edgeStyle=orthogonalEdgeStyle;curved=1;rounded=0;orthogonalLoop=1;jettySize=auto;html=1;exitX=1;exitY=0.5;exitDx=0;exitDy=0;dashed=1;endArrow=none;endFill=0;fillColor=#dae8fc;strokeColor=#6c8ebf;entryX=0;entryY=0.5;entryDx=0;entryDy=0;" edge="1" parent="1" source="Fet1WZ8O3aiLSY5_AQYO-231" target="Fet1WZ8O3aiLSY5_AQYO-234">
          <mxGeometry relative="1" as="geometry">
            <mxPoint x="418" y="230" as="targetPoint" />
          </mxGeometry>
        </mxCell>
        <mxCell id="Fet1WZ8O3aiLSY5_AQYO-231" value="g" style="ellipse;whiteSpace=wrap;html=1;aspect=fixed;fillColor=#dae8fc;strokeColor=#6c8ebf;fontStyle=1;labelPosition=center;verticalLabelPosition=top;align=center;verticalAlign=bottom;fontColor=#0066CC;" vertex="1" parent="1">
          <mxGeometry x="328" y="190" width="20" height="20" as="geometry" />
        </mxCell>
        <mxCell id="Fet1WZ8O3aiLSY5_AQYO-232" value="Release" style="text;html=1;strokeColor=#d79b00;fillColor=#ffe6cc;align=center;verticalAlign=middle;whiteSpace=wrap;rounded=0;fontSize=12;" vertex="1" parent="1">
          <mxGeometry x="40" y="230" width="90" height="20" as="geometry" />
        </mxCell>
        <mxCell id="Fet1WZ8O3aiLSY5_AQYO-233" style="edgeStyle=orthogonalEdgeStyle;curved=1;rounded=0;orthogonalLoop=1;jettySize=auto;html=1;exitX=1;exitY=0.5;exitDx=0;exitDy=0;dashed=1;endArrow=none;endFill=0;fillColor=#dae8fc;strokeColor=#6c8ebf;entryX=0;entryY=0.5;entryDx=0;entryDy=0;" edge="1" parent="1" source="Fet1WZ8O3aiLSY5_AQYO-234" target="Fet1WZ8O3aiLSY5_AQYO-240">
          <mxGeometry relative="1" as="geometry">
            <mxPoint x="630" y="200.09523809523807" as="targetPoint" />
          </mxGeometry>
        </mxCell>
        <mxCell id="Fet1WZ8O3aiLSY5_AQYO-238" style="edgeStyle=none;rounded=0;orthogonalLoop=1;jettySize=auto;html=1;exitX=0.5;exitY=1;exitDx=0;exitDy=0;entryX=0;entryY=0.5;entryDx=0;entryDy=0;dashed=1;endArrow=none;endFill=0;fillColor=#fff2cc;strokeColor=#d6b656;" edge="1" parent="1" source="Fet1WZ8O3aiLSY5_AQYO-234" target="Fet1WZ8O3aiLSY5_AQYO-225">
          <mxGeometry relative="1" as="geometry">
            <Array as="points">
              <mxPoint x="408" y="240" />
            </Array>
          </mxGeometry>
        </mxCell>
        <mxCell id="Fet1WZ8O3aiLSY5_AQYO-234" value="h" style="ellipse;whiteSpace=wrap;html=1;aspect=fixed;fillColor=#dae8fc;strokeColor=#6c8ebf;fontStyle=1;labelPosition=center;verticalLabelPosition=top;align=center;verticalAlign=bottom;fontColor=#0066CC;" vertex="1" parent="1">
          <mxGeometry x="378" y="190" width="20" height="20" as="geometry" />
        </mxCell>
        <mxCell id="Fet1WZ8O3aiLSY5_AQYO-241" style="edgeStyle=none;rounded=0;orthogonalLoop=1;jettySize=auto;html=1;exitX=1;exitY=0.5;exitDx=0;exitDy=0;dashed=1;endArrow=none;endFill=0;" edge="1" parent="1" source="Fet1WZ8O3aiLSY5_AQYO-240">
          <mxGeometry relative="1" as="geometry">
            <mxPoint x="658" y="200.27586206896558" as="targetPoint" />
          </mxGeometry>
        </mxCell>
        <mxCell id="Fet1WZ8O3aiLSY5_AQYO-243" style="edgeStyle=none;rounded=0;orthogonalLoop=1;jettySize=auto;html=1;exitX=1;exitY=0.5;exitDx=0;exitDy=0;dashed=1;endArrow=none;endFill=0;fillColor=#dae8fc;strokeColor=#6c8ebf;" edge="1" parent="1" source="Fet1WZ8O3aiLSY5_AQYO-240">
          <mxGeometry relative="1" as="geometry">
            <mxPoint x="718" y="200.27586206896558" as="targetPoint" />
          </mxGeometry>
        </mxCell>
        <mxCell id="Fet1WZ8O3aiLSY5_AQYO-240" value="i" style="ellipse;whiteSpace=wrap;html=1;aspect=fixed;fillColor=#dae8fc;strokeColor=#6c8ebf;fontStyle=1;labelPosition=center;verticalLabelPosition=top;align=center;verticalAlign=bottom;fontColor=#0066CC;" vertex="1" parent="1">
          <mxGeometry x="658" y="190" width="20" height="20" as="geometry" />
        </mxCell>
        <mxCell id="Fet1WZ8O3aiLSY5_AQYO-244" value="使用 git rebase / git pull origin --rebase" style="text;html=1;strokeColor=none;fillColor=none;align=left;verticalAlign=middle;whiteSpace=wrap;rounded=0;" vertex="1" parent="1">
          <mxGeometry x="40" y="140" width="650" height="20" as="geometry" />
        </mxCell>
        <mxCell id="Fet1WZ8O3aiLSY5_AQYO-245" value="使用 git merge" style="text;html=1;strokeColor=none;fillColor=none;align=left;verticalAlign=middle;whiteSpace=wrap;rounded=0;" vertex="1" parent="1">
          <mxGeometry x="40" y="10" width="650" height="20" as="geometry" />
        </mxCell>
      </root>
    </mxGraphModel>
  </diagram>
</mxfile>
